<svg width="16" height="17" viewBox="0 0 16 17" fill="none" xmlns="http://www.w3.org/2000/svg">
<path d="M14.8571 10.0979H9.14286V15.4312C9.14286 15.7141 9.02245 15.9854 8.80812 16.1854C8.59379 16.3855 8.30311 16.4979 8 16.4979C7.6969 16.4979 7.40621 16.3855 7.19188 16.1854C6.97755 15.9854 6.85714 15.7141 6.85714 15.4312V10.0979H1.14286C0.839753 10.0979 0.549063 9.98549 0.334735 9.78545C0.120408 9.58541 0 9.3141 0 9.0312C0 8.7483 0.120408 8.47699 0.334735 8.27695C0.549063 8.07691 0.839753 7.96453 1.14286 7.96453H6.85714V2.6312C6.85714 2.3483 6.97755 2.07699 7.19188 1.87695C7.40621 1.67691 7.6969 1.56453 8 1.56453C8.30311 1.56453 8.59379 1.67691 8.80812 1.87695C9.02245 2.07699 9.14286 2.3483 9.14286 2.6312V7.96453H14.8571C15.1602 7.96453 15.4509 8.07691 15.6653 8.27695C15.8796 8.47699 16 8.7483 16 9.0312C16 9.3141 15.8796 9.58541 15.6653 9.78545C15.4509 9.98549 15.1602 10.0979 14.8571 10.0979Z" fill="#191C2D"/>
</svg>
