<svg width="18" height="17" viewBox="0 0 18 17" fill="none" xmlns="http://www.w3.org/2000/svg">
<path d="M16.2727 15.7727L12.5909 12.0909M12.5909 12.0909C13.1818 11.5 13.6506 10.7984 13.9704 10.0263C14.2902 9.25418 14.4549 8.42664 14.4549 7.59091C14.4549 6.75518 14.2902 5.92764 13.9704 5.15553C13.6506 4.38342 13.1818 3.68186 12.5909 3.09091C11.9999 2.49996 11.2984 2.03119 10.5263 1.71138C9.75416 1.39156 8.92662 1.22695 8.09089 1.22695C7.25516 1.22695 6.42762 1.39156 5.65551 1.71138C4.8834 2.03119 4.18184 2.49996 3.59089 3.09091C2.39742 4.28438 1.72693 5.90308 1.72693 7.59091C1.72693 9.27874 2.39742 10.8974 3.59089 12.0909C4.78436 13.2844 6.40306 13.9549 8.09089 13.9549C9.77872 13.9549 11.3974 13.2844 12.5909 12.0909Z" stroke="#41424F" stroke-width="2" stroke-linecap="round" stroke-linejoin="round"/>
</svg>
